Coordinates
version=1
nRows=19
nColumns=36
inDegrees=yes

Units are S.I. units (second, meters, Newtons, ...)
If the header above contains a line with 'inDegrees', this indicates whether rotational values are in degrees (yes) or radians (no).

endheader
time	pelvis_tilt	pelvis_list	pelvis_rotation	pelvis_tx	pelvis_ty	pelvis_tz	hip_flexion_r	hip_adduction_r	hip_rotation_r	knee_angle_r	knee_angle_r_beta	ankle_angle_r	subtalar_angle_r	mtp_angle_r	hip_flexion_l	hip_adduction_l	hip_rotation_l	knee_angle_l	knee_angle_l_beta	ankle_angle_l	subtalar_angle_l	mtp_angle_l	lumbar_extension	lumbar_bending	lumbar_rotation	arm_flex_r	arm_add_r	arm_rot_r	elbow_flex_r	pro_sup_r	arm_flex_l	arm_add_l	arm_rot_l	elbow_flex_l	pro_sup_l
      4.31666670	     -6.76536997	     -5.42301755	     -7.33498149	      0.85205808	      0.98916331	     -0.09430295	     22.34696896	      3.87431133	      7.02387779	      0.40903694	      0.00713904	     -5.12030422	    -11.23441350	     -7.49999987	      6.58759749	      1.23505987	      6.81731009	     11.26659855	      0.19663924	      8.99515947	     -2.88034002	     -7.49999987	     -0.09475816	      6.63499111	     -0.96223891	     38.22731330	      1.16061209	     69.58129600	    107.81423324	     94.24506685	     30.12983368	      0.74060353	     59.85425186	    117.75803292	     95.76920229
      4.33333330	     -6.56938714	     -5.42350236	     -7.40721416	      0.85217040	      0.99417950	     -0.09427774	     22.15528232	      3.93979850	      6.89247013	      0.42027725	      0.00733522	     -5.29212396	    -11.26612265	     -7.49999987	      6.26110310	      1.24745146	      6.80449817	     11.10939583	      0.19389554	      8.72138843	     -3.01023134	     -7.49999987	     -0.51645526	      6.62251369	     -1.18349639	     38.06608352	      1.25792967	     69.81002223	    107.51720830	     93.25035672	     30.30871586	      0.52156151	     60.01492947	    117.67345195	     94.65949685
      4.35000000	     -6.51673928	     -5.40302333	     -7.49956437	      0.85186469	      0.98913372	     -0.09430556	     22.22009145	      3.97434391	      6.91395917	      0.43487561	      0.00759001	     -5.38500516	    -11.37944433	     -7.49999987	      6.16639383	      1.26165226	      6.68368320	     11.07820618	      0.19335117	      8.58758938	     -2.97492935	     -7.49999987	     -0.62776777	      6.61498883	     -1.12692399	     38.29409346	      1.41350847	     69.91063892	    107.58918836	     92.55342501	     30.54953237	      0.42074355	     60.05673714	    117.87520602	     93.94618238
      4.36666670	     -6.36477383	     -5.39903712	     -7.55384441	      0.85196641	      0.99204246	     -0.09437363	     22.13016618	      4.00155580	      6.81025554	      0.43408445	      0.00757620	     -5.46669198	    -11.34704108	     -7.49999987	      5.93811282	      1.27851876	      6.62514362	     10.98065473	      0.19164858	      8.37086387	     -3.05929438	     -7.49999987	     -0.87298494	      6.64436788	     -1.03790873	     38.43199702	      1.47548641	     69.97731787	    107.58078605	     91.15418698	     30.77039530	      0.32984854	     60.25482535	    117.94715679	     92.41537587
      4.38333330	     -6.34044461	     -5.35493385	     -7.63994695	      0.85798946	      0.99174773	     -0.09559095	     22.12293192	      3.98997406	      6.77483435	      0.42694494	      0.00745160	     -5.44445317	    -11.36463507	     -7.49999987	      5.76349526	      1.35278473	      6.62546390	     10.94666744	      0.19105539	      8.34223857	     -3.03824245	     -7.49999987	     -0.73124193	      6.69016041	     -1.05198900	     38.36969156	      1.49421242	     70.01579328	    107.60752727	     91.17730541	     30.75143090	      0.31405873	     60.28105359	    117.95145348	     92.44020625
      4.40000000	     -6.28664750	     -5.31096517	     -7.72052755	      0.85823708	      0.98937945	     -0.09550147	     21.98689291	      3.97446945	      6.79054051	      0.37559131	      0.00655531	     -5.45011052	    -11.24588251	     -7.49999987	      5.35321031	      1.40643536	      6.50282292	     10.45202825	      0.18242231	      8.09453520	     -2.88925808	     -7.49999987	     -0.42750046	      6.71671299	     -1.39320926	     37.76913820	      1.69856301	     69.91605722	    107.60164088	     95.76221845	     30.32053181	      0.06486631	     59.79944358	    118.31113779	     97.52468860
      4.41666670	     -6.71807035	     -5.29446841	     -7.77921637	      0.85846453	      0.98906714	     -0.09562395	     22.46008716	      4.04463810	      6.28752871	      0.37912213	      0.00661693	     -5.31694699	    -10.60411585	     -7.49999987	      5.66901495	      1.37795060	      6.39991394	     10.36463364	      0.18089698	      8.12078856	     -2.57323919	     -7.49999987	      0.45302740	      6.81569791	     -1.14617747	     37.61746731	      1.41675272	     70.05351406	    107.73574150	     93.16220603	     30.02322359	      0.09578816	     60.25623850	    118.20947757	     94.82400869
      4.43333330	     -6.79405061	     -5.25042417	     -7.95959777	      0.85879850	      0.98894634	     -0.09539073	     22.58482325	      4.07179395	      6.49013284	      0.40973299	      0.00715119	     -5.64958046	    -11.12924911	     -7.49999987	      5.63542413	      1.42142231	      6.39306425	     10.28341340	      0.17947942	      7.97030891	     -2.79833083	     -7.49999987	      0.71065501	      6.86028928	     -0.83573894	     37.60419178	      1.14772853	     70.28136577	    107.68737784	     91.59245910	     29.93010897	      0.06028010	     60.39135015	    117.93725823	     93.18465289
      4.45000000	     -6.02211445	     -5.37498679	     -7.94559229	      0.85818768	      0.99220721	     -0.09539463	     21.81831932	      4.12420543	      6.53650221	      0.39994801	      0.00698041	     -5.87876552	    -11.53102610	     -7.49999987	      4.71759530	      1.41852095	      6.45838815	     10.15738874	      0.17727988	      7.67952031	     -3.11484429	     -7.49999987	     -0.52565886	      6.90222687	     -0.69944627	     38.05417758	      1.18994936	     70.37170614	    108.01481166	     90.33294991	     30.45736487	      0.02103094	     60.60682261	    118.29539683	     91.92881984
      4.46666670	     -5.94918189	     -5.36447554	     -8.09006371	      0.85821410	      0.98986680	     -0.09548550	     21.81756445	      4.16239759	      6.57242402	      0.39841995	      0.00695374	     -5.98726605	    -11.61969828	     -7.49999987	      4.58306125	      1.44197245	      6.36809119	     10.08350826	      0.17599042	      7.51160637	     -3.09275006	     -7.49999987	     -0.65073200	      6.92031697	     -0.69933443	     38.11198606	      1.40369354	     70.34549738	    107.73636076	     94.79231470	     30.60896922	      0.14263024	     60.19831169	    118.07577023	     97.24672373
      4.48333330	     -5.84560425	     -5.37886415	     -8.20368175	      0.85816767	      0.99242370	     -0.09520104	     21.85262614	      4.22028730	      6.65451342	      0.41176837	      0.00718671	     -6.17380127	    -11.81409527	     -7.49999987	      4.41101084	      1.42866329	      6.20028321	      9.97371756	      0.17407421	      7.38855600	     -2.95896711	     -7.49999987	     -0.89368823	      6.92591888	     -0.64889516	     38.00384682	      1.48353091	     70.53414992	    107.56851441	     93.96048522	     30.64674609	      0.04096257	     60.27544377	    117.80940686	     96.42751183
      4.50000000	     -5.78767403	     -5.41977748	     -8.24081453	      0.85824918	      0.99008015	     -0.09549009	     21.88401543	      4.26535793	      6.56210659	      0.43459852	      0.00758518	     -6.33913732	    -11.80489970	     -7.49999987	      4.32713510	      1.40662809	      6.18643391	      9.93392004	      0.17337961	      7.11701585	     -3.09590117	     -7.49999987	     -1.02305499	      6.99053671	     -0.67341212	     38.07906968	      1.55037029	     70.54869647	    107.64924235	     94.55487910	     31.00363339	     -0.14475453	     60.67563530	    117.89274150	     97.07946819
      4.51666670	     -5.74100490	     -5.47911615	     -8.30803180	      0.85811960	      0.99037813	     -0.09552638	     21.95894064	      4.33915759	      6.56182948	      0.45077151	      0.00786745	     -6.52127948	    -11.88761143	     -7.49999987	      4.24295863	      1.35745136	      6.14928617	      9.86369800	      0.17215401	      6.94817359	     -3.14759390	     -7.49999987	     -1.14953452	      7.14684797	     -0.42617657	     38.37390085	      1.58088615	     70.77437339	    107.72372915	     93.16751361	     31.29094882	     -0.26924029	     61.08485941	    118.17768973	     95.67886136
      4.53333330	     -5.65314675	     -5.49073195	     -8.34065672	      0.85836865	      0.99319002	     -0.09569439	     21.92028994	      4.35362960	      6.51524110	      0.45933683	      0.00801694	     -6.81901022	    -11.88962072	     -7.49999987	      4.09898269	      1.36081582	      6.15339799	      9.75965931	      0.17033819	      6.67301147	     -3.20756359	     -7.49999987	     -1.39257115	      7.16346786	     -0.10306123	     38.74954462	      1.52318837	     71.04618365	    107.75292963	     90.72570322	     31.54895288	     -0.37447776	     61.37191673	    118.18343362	     92.93677947
      4.55000000	     -5.70776576	     -5.50717022	     -8.33224109	      0.85839803	      0.99322071	     -0.09572868	     22.03119325	      4.38091428	      6.51947367	      0.45214544	      0.00789143	     -6.84316150	    -11.86928451	     -7.49999987	      4.15733286	      1.33646166	      6.17501429	      9.72516332	      0.16973612	      6.60955338	     -3.17736976	     -7.49999987	     -1.50794034	      7.16798634	     -0.04776600	     38.80110919	      1.53645517	     71.05747745	    107.73457222	     90.74210834	     31.59137918	     -0.41670328	     61.35518492	    118.15649086	     92.95217927
      4.56666670	     -5.75110097	     -5.53633495	     -8.44231285	      0.85865202	      0.99302022	     -0.09571518	     22.14996771	      4.45832395	      6.56271158	      0.46054878	      0.00803809	     -6.94756669	    -11.60201164	     -7.49999987	      4.24964359	      1.28986362	      6.03263759	      9.75219643	      0.17020794	      6.11231487	     -3.21191612	     -7.49999987	     -1.66956284	      7.29308091	      0.43472268	     39.54199948	      1.61413078	     71.18726262	    107.41016215	     94.51183704	     32.11234185	     -0.23101335	     61.36956582	    117.96169107	     96.49783854
      4.58333330	     -5.79975859	     -5.54997351	     -8.42487502	      0.85856841	      0.99499551	     -0.09563777	     22.21919454	      4.48296647	      6.58239043	      0.49492448	      0.00863806	     -7.00663201	    -11.56309023	     -7.49999987	      4.35158710	      1.26012837	      6.03934745	      9.76929434	      0.17050635	      6.01812040	     -3.18494777	     -7.49999987	     -1.85788972	      7.27781983	      0.45156451	     39.55250898	      1.58168347	     71.17612693	    107.34509119	     94.51247868	     32.10767467	     -0.28200279	     61.34339562	    117.89495533	     96.49658442
      4.60000000	     -5.70727997	     -5.62002956	     -8.34790513	      0.85885142	      0.99253872	     -0.09611554	     22.16219643	      4.51781325	      6.42564574	      0.50114853	      0.00874669	     -7.31415255	    -11.46772790	     -7.49999987	      4.34401057	      1.22725094	      6.15764553	      9.86837787	      0.17223569	      5.53454715	     -3.45052988	     -7.49999987	     -2.02165591	      7.38864113	      0.64630906	     40.27514245	      1.54590254	     71.06016821	    107.07705872	     91.72433261	     32.48416169	     -0.13438988	     61.69685110	    117.88511705	     93.34715952
      4.61666670	     -5.70252936	     -5.67970322	     -8.43162645	      0.85871916	      0.98976853	     -0.09593342	     22.22140638	      4.62638778	      6.60232659	      0.55032651	      0.00960501	     -7.51700175	    -11.66367982	     -7.49999987	      4.54534954	      1.13769745	      5.84505578	     10.26327460	      0.17912793	      5.55047407	     -3.25222570	     -7.49999987	     -2.11432061	      7.48343599	      0.92621661	     40.89116477	      1.49871561	     71.00580021	    107.07461126	     90.20001874	     32.90016661	      0.06039215	     62.00804419	    118.06719418	     91.60082288
